<mxfile host="app.diagrams.net" modified="2023-12-01T09:26:49.475Z" agent="Mozilla/5.0 (Windows NT 10.0; Win64; x64) AppleWebKit/537.36 (KHTML, like Gecko) Chrome/119.0.0.0 Safari/537.36 Edg/119.0.0.0" version="22.1.5" etag="HNqnCP_lkeIpa2JZQ7c3" type="github">
  <diagram name="第 1 页" id="PlmpWAG4g_E5hHEfSpob">
    <mxGraphModel>
      <root>
        <mxCell id="0" />
        <mxCell id="1" parent="0" />
      </root>
    </mxGraphModel>
  </diagram>
</mxfile>
